<svg id="Layer_1" data-name="Layer 1" xmlns="http://www.w3.org/2000/svg" viewBox="0 0 391.89 197.86"><defs><style>.cls-1{font-size:90.18px;font-family:Bangers-Regular, Bangers;}.cls-1,.cls-3{fill:#38d827;}.cls-2{fill:#fff;}</style></defs><title>Asset 5</title><text class="cls-1" transform="translate(183.06 68.07) scale(1.19 1)">apple<tspan class="cls-2"><tspan x="0" y="108.21">juice</tspan></tspan></text><path class="cls-3" d="M638.06,184.39a4,4,0,0,1-3.78-2.76c-6.35-20-3.87-40.41,6.18-50.72a4,4,0,0,1,5.68,5.53c-7.94,8.15-9.71,25.74-4.3,42.79a4,4,0,0,1-2.58,5A4.16,4.16,0,0,1,638.06,184.39Z" transform="translate(-613.87 -62.14)"/><path class="cls-3" d="M756.32,120.89c-16.48-16.89-34-17.18-45.84-14.44a59.85,59.85,0,0,0-16,6.32,52.76,52.76,0,0,0-1.36-5.51c.4,0,.81,0,1.22,0,4.5,0,9.67-1.84,15.36-5.47A87.31,87.31,0,0,0,728.24,85.4c6.89-8.23,9-14.62,6.18-19-1.7-2.66-4.86-4-9.38-4-9.45,0-24.28,5.86-33.16,11.54-5.82,3.71-9.22,7.38-11,10.82a99.69,99.69,0,0,0-13.4-13.69,4,4,0,1,0-5.11,6.06C670,83.6,682.2,96,686.12,111.68a59,59,0,0,0-14-5.23c-11.83-2.74-29.37-2.45-45.85,14.44C617.4,130,613,144.84,614,162.65c.91,16.76,6.56,33.92,15.48,47.08,11.19,16.5,26,25.1,42.43,25.1A53.63,53.63,0,0,0,691.31,231a53.79,53.79,0,0,0,19.38,3.82c16.4,0,31.25-8.6,42.43-25.1,8.93-13.16,14.57-30.32,15.48-47.08C769.57,144.84,765.21,130,756.32,120.89ZM696.14,80.62c8.74-5.58,22-10.3,28.9-10.3a6.55,6.55,0,0,1,2.66.39c0,1-1,4.41-6.33,10.53a80,80,0,0,1-15.94,13.92c-4.33,2.76-8.17,4.23-11.09,4.23a6.61,6.61,0,0,1-3.24-.78L703.22,91a4,4,0,1,0-4.2-6.73l-12,7.53C687,89.12,688.81,85.3,696.14,80.62Zm64.55,81.59c-.84,15.37-6,31.07-14.13,43.08-7.93,11.69-25.45,29.55-53.73,17.79h0a4.34,4.34,0,0,0-3,0C662,236,644,217,636.05,205.29c-8.14-12-13.29-27.71-14.13-43.08s2.83-28.38,10.05-35.78c11.08-11.37,23.91-15.52,38.11-12.32a52,52,0,0,1,18.77,8.56,4,4,0,0,0,4.83.06,52.61,52.61,0,0,1,18.85-8.62c14.2-3.2,27,1,38.11,12.32C757.87,133.83,761.53,146.87,760.69,162.21Z" transform="translate(-613.87 -62.14)"/></svg>